<svg id="Layer_1" data-name="Layer 1" xmlns="http://www.w3.org/2000/svg" viewBox="0 0 290.67 223.58"><defs><style>.cls-1,.cls-4{fill:#c01;}.cls-2,.cls-3{fill:none;}.cls-3,.cls-4{stroke:#c01;}.cls-3{stroke-width:0.25px;}.cls-4{stroke-width:0.2px;}</style></defs><path class="cls-1" d="M253.34,309c-8.83.14-11.14,3.4-11.27,11l-.55,43.61c-.27,19.83-8.55,39.8-38.44,39.8-25.13,0-44.28-10.87-44.28-39.93V320c0-7.6-2.45-10.86-11.28-11v-4.08c10.87.41,15.48.41,19.83.41s9,0,19.84-.41V309c-8.83.14-11.28,3.4-11.28,11v46.87c0,20.38,12.91,31.38,28.12,31.38,23.64,0,32.06-15.22,32.06-38.85,0-7.61-.14-13-.27-19l-.41-19.7c-.14-8.15-1.9-11.68-11.82-11.68v-4.08c5,.14,10.46.41,14.67.41s9.79-.27,15.08-.41Z" transform="translate(-147.52 -303.17)"/><path class="cls-1" d="M347.35,335.09h-3.54c-3-19.56-19.56-26.76-35.86-26.76-18.07,0-35.59,14.26-35.59,40.62,0,25.54,14.67,48.77,38.17,48.77,10.19,0,26.09-6,37.77-24.46l.06,16c-11.31,9.53-27.64,14.12-42.17,14.12-47,0-53.94-36.4-53.94-51.21,0-22,15.63-49,57.88-49,8.55,0,24.31,2.44,37.22,7.61Z" transform="translate(-147.52 -303.17)"/><path class="cls-2" d="M386.75,324Z" transform="translate(-147.52 -303.17)"/><path class="cls-1" d="M419.53,314.43l0-.07c-.14-.42-.67-2.61,2.7-3.07a7.29,7.29,0,0,1,1.68-2.17,10.27,10.27,0,0,1,1.6,2.33,3.42,3.42,0,0,1,2.79,3.07s-1.7-1-2.1.27l.18,4.29h4.07a1.76,1.76,0,0,0,.55-1.9s2.67-1.23,2.82,2.77a8.8,8.8,0,0,1,2.35,1.38,4.8,4.8,0,0,1-2.5,1.75s-.32,2.87-2.82,2.71c0,0,.85-1.56-.37-2.06h-4.28l0,4.25a1.3,1.3,0,0,0,1.76.56s1.3,2.79-2.39,2.79a7.85,7.85,0,0,1-1.66,2.46,6.62,6.62,0,0,1-1.69-2.59s-2.67-.22-2.71-2.7c0,0,1.44.54,2.09-.49l-.19-4.25h-4.09a1.35,1.35,0,0,0-.42,2s-2.77.91-3-2.65a7.61,7.61,0,0,1-2.33-1.67,7.48,7.48,0,0,1,2.49-1.65s.37-2.81,2.87-2.78c0,0-.9,1.69.35,2.09h4.31v-4.28A1.34,1.34,0,0,0,419.53,314.43Zm3-.18v5.83h-5.83a1.81,1.81,0,0,1-1.09-1.6,2.86,2.86,0,0,0-.85,2.18,2.78,2.78,0,0,0-2,.76,3,3,0,0,0,1.89.78c.09,2.62,1,2.53,1,2.53-.32-1.15,1-2,1-2h5.79l0,5.73a2.47,2.47,0,0,1-1.68,1.11c.28.71,2.15,1,2.15,1a2.37,2.37,0,0,0,1,2c.52-.34.7-2.07.7-2.07,2.06.45,2.51-.88,2.51-.88a2.32,2.32,0,0,1-2-1.16V322.8h5.73c.92.25,1.17,1.74,1.17,1.74a4.18,4.18,0,0,0,.88-2.43,2.53,2.53,0,0,0,1.84-.67,2.55,2.55,0,0,0-1.87-.88c.23-2.11-.82-2.61-.82-2.61a3.05,3.05,0,0,1-1,2.13h-5.92l0-5.9a2.61,2.61,0,0,1,1.82-1,4,4,0,0,0-2.36-.8,2.82,2.82,0,0,0-.71-1.89,3.45,3.45,0,0,0-.87,1.91c-1.91-.41-2.47.72-2.47.72A2.24,2.24,0,0,1,422.5,314.25Z" transform="translate(-147.52 -303.17)"/><path class="cls-1" d="M357.38,314.44l4.51-4.51,6.79,6.79,6.81-6.79,4.72,4.72-8.42,8v11h-6.4v-11Zm8.88,7.77,0,10.37h4.63l0-10.44,7.61-7.53-3.11-3.28-6.76,6.75-6.86-6.87-3.08,3.19Z" transform="translate(-147.52 -303.17)"/><path class="cls-1" d="M367.72,318.72h1.75l-.39,1.55,1.17-.58v1.94l-1-.39v2.92a2.7,2.7,0,0,1-.58,1c-.19,0-.39-.39-.58-1v-2.92l-1.17.39v-1.94l1.17.58-.39-1.55Z" transform="translate(-147.52 -303.17)"/><path class="cls-1" d="M367.53,325.9h1.94l-.39,1.36,1.17-.39v1.75l-1.17-.39v3.11c-.19.59-.39.78-.58.78a1.34,1.34,0,0,1-.59-.78v-3.11l-1,.39v-1.75l1.17.39-.58-1.36Z" transform="translate(-147.52 -303.17)"/><path class="cls-1" d="M360.53,314.64l1.36-1.36.78,1.16.39-1.16,1.36,1.36-1.17.39,2.33,2.33a.68.68,0,1,1-.77.77L362.47,316l-.38,1-1.36-1.36,1.16-.39-1.36-.58Z" transform="translate(-147.52 -303.17)"/><path class="cls-1" d="M375.3,313.08l1.36,1.36-1.17.78,1.17.39L375.3,317l-.59-1-2.13,2.33a4.26,4.26,0,0,1-1.17.19,3.29,3.29,0,0,1,.2-1l2.33-2.33-1-.58,1.16-1.36.58,1.16.59-1.36Z" transform="translate(-147.52 -303.17)"/><path class="cls-1" d="M373.58,374.22c.58.09,2.71.73,2.71.73.17-.26,1.71-1.83,1.71-1.83-.36-.2-2.44-.92-2.44-.92C375.33,372.4,373.58,374.22,373.58,374.22Z" transform="translate(-147.52 -303.17)"/><polygon class="cls-1" points="272.84 72.43 272.04 73.24 272.84 74.04 273.64 73.24 272.84 72.43"/><polygon class="cls-1" points="267.43 69.35 266.63 70.15 265.82 69.35 266.63 68.56 267.43 69.35"/><path class="cls-1" d="M418.85,374.48l-1.65,1.61-1.61-1.62,1.66-1.66Zm-1.63-.31-.29.27.29.29.32-.27Z" transform="translate(-147.52 -303.17)"/><path class="cls-1" d="M383.82,361.5a.29.29,0,0,1-.13-.26.37.37,0,0,1,0,.09,1,1,0,0,0,.22,1.05l.34-.35h0l.34-.34h0s0,0,0,0a.69.69,0,0,1,0-.13.71.71,0,0,0-.35-1l-.21.43h0Z" transform="translate(-147.52 -303.17)"/><path class="cls-1" d="M437.84,339.5c.19,58.08-41.18,66.43-41.18,66.43s-41.18-8.74-41.18-66.43V306.09h82.36V339.5Zm-80.61-31.76v30.4s2.74,2.22,5,2.14c0,0,1.75.58,4.6-2.41,0,0,2.53-2.95,5.35-2.93,0,0,1.66-.5,5.68,2.42,0,0,2.79,3,6.18,3,0,0,2.95.2,6.23-2.88,0,0,2.78-2.55,6-2.62,0,0,2.41-.45,6.21,2.7,0,0,2.83,2.81,6.23,2.8a8.33,8.33,0,0,0,6-3.24s2.77-2.77,5.69-2.7a8.32,8.32,0,0,1,5.63,2.7s3.21,3.44,5.69,3.14c0,0,2.93,0,4.32-2.14v-30.3Zm38.9,32.76h-.85V349h.85Zm1.83,0h-.85V349H398Zm.88-.79a2.47,2.47,0,0,0,.26-1.09,2.44,2.44,0,0,0-4.87,0,2.48,2.48,0,0,0,.25,1.08h1.65a1.2,1.2,0,1,1,1.74-1.08,1.19,1.19,0,0,1-.68,1.08Zm-11.21,39.51v3.3h19.64s1.64,7.24,6,7.81v-3.14s-1.23.3-2.11-1.95L410,381.91s4.9-1.7,7.41-4.36l-2.88-1.65a21.76,21.76,0,0,1-5.38,2.89L408,375.13l-2.9.62,1.11,3.46Zm3.3,4.1v1.12h6.6V383.3Zm-3.12-.09v6.69h15s.8-.05.77-.76c0,0,.13-.53-.63-1.28l-4.4-4.68v2.24H390v-2.19Zm-2.33,7.69V392h23.17l-8.06-8.78H400l4,4.33a2.41,2.41,0,0,1,.43,2.31s-.31.95-1.82,1.05Zm34.64-12.69c2.36,1,3.05-.23,3.05-.23.91-1.66-1.1-2.91-1.1-2.91l-7.74-4.45c-2.17-.61-2.73.7-2.73.7a2.09,2.09,0,0,0,.8,2.63Zm-33.3,3.44v-2.56a87,87,0,0,0-8.38-3.51s1.15-1.38,1.54-1.77a49.74,49.74,0,0,1,8.32,4.67h3.24a49.94,49.94,0,0,0-22.88-10.13s-.86-.22-1.16.89a1.06,1.06,0,0,0,.77,1.22,31.8,31.8,0,0,1,5,1.13l-2.16,2.21s-3.17-.6-4.85-.8a1.14,1.14,0,0,0-1.17,1.1s-.13.95.64,1.22C365.77,375.34,377.06,375.87,386.82,381.67Zm-3-25.71a2.33,2.33,0,0,1,2.48-.29,1.32,1.32,0,0,1,1.18.29,2.23,2.23,0,0,1,.53-2,1.18,1.18,0,0,0,.89,1.53c-1.3.84,0,1.48,0,1.48-1.41.85-.11,1.5-.11,1.5-1,.88.23,1,.23,1-.38,2,1,2.53,1,2.53a.74.74,0,0,1-.49,0,19.3,19.3,0,0,1,0,6.43,1.09,1.09,0,0,1,0,.9c.29.81-.62.84-.62.84a5,5,0,0,1-.73,1.31l.34.45.78-1,.2.19-.59,1.17,1-.2a1.55,1.55,0,0,0,1-1.36c-.53-1.61.39-2.13.39-2.13-.71-2.24.3-7,.3-7,1.48-.16.7-1.9.7-1.9,1.06-.57.25-1.75.25-1.75.89-.49.24-1.75.24-1.75.9-.61.37-2.07.37-2.07,1-.41.28-1.67.28-1.67.82-.53,0-1.95,0-1.95.73.24,1-1,1-1v-9.5a2.27,2.27,0,0,0-1.68,1A1.83,1.83,0,0,0,391,342.3a1.92,1.92,0,0,0-1.83,1.54c-1.42,0-1.42,1.75-1.42,1.75a1.27,1.27,0,0,0-1,1.47,1.89,1.89,0,0,0-.94,1.5c-.93.41-.93,1.71-.93,1.71-1.14.32-.74,1.58-.74,1.58-.85.37-.52,1.67-.52,1.67a2.3,2.3,0,0,0-.82,1.71A9.4,9.4,0,0,1,383.85,356Zm-1.22,2c.89,1.7,2,1.63,2,1.63a2.31,2.31,0,0,0,2.2-.86,1.77,1.77,0,0,0,.16-1.95c-.33-.61-.73.12-.73.12-.53,1.59-1.18,1.51-1.18,1.51-.9.36-1.55-1.19-1.55-1.19a2.55,2.55,0,0,0-2.4-1.46A6.07,6.07,0,0,1,382.63,357.91Zm.12,3a2.11,2.11,0,0,1-.3.81,3.34,3.34,0,0,1,1.72,1.91c.94,1.95,1.79,1.34,1.79,1.34l-.39-.61a.57.57,0,0,1,0-.77c.36-.28.77.12.77.12-.81-1.83.56-2.23.56-2.23a3.09,3.09,0,0,0-.32-1.75,3.39,3.39,0,0,1-2.69.32A3,3,0,0,1,382.75,361Zm1.42-4.27.4.73s.21.45.62,0a3.16,3.16,0,0,0,.57-1.14S385.23,356,384.17,356.69Zm-3.25.33a2.55,2.55,0,0,0-1.83-.65,12.85,12.85,0,0,1,1.31,1.72S380.68,357.17,380.92,357Zm6.47,5a2.23,2.23,0,0,1-.41.29.64.64,0,0,0,0,.89s.85,1.38.12,2a9.5,9.5,0,0,1,0,4.36,6,6,0,0,0-.49,1.83l.45-.82.28,0-.19,1,.6-.14a4.6,4.6,0,0,0,.53-1.51s-.14-.85.42-1a1,1,0,0,1,0-1s.77-1.83-.08-6A1.15,1.15,0,0,1,387.39,362Zm0-2.11s.16.85.16,1.1l.2.24.33,0,0-.93Zm15.83,12.27,1.56-1,.11.21a7,7,0,0,0-1.24,1.09s.26.2,1.91-.33a1.68,1.68,0,0,0,.86-.61s.32-.22,0-.71a1.34,1.34,0,0,1-.26-.81.64.64,0,0,0,.65-.17s.12,0,.29-.36a1.09,1.09,0,0,1,.41-1s-.29-6.51.13-7c0,0,.26-1.34-.81-1.58,0,0,1.24-1.15.17-1.62,0,0,1.29-1.21-.19-1.7,0,0,1.58-1.11.52-2.06a1.39,1.39,0,0,0-.15-1.87s.38-1.64-.64-1.81c0,0,.83-1.15-.15-1.44,0,0,.57-1.58-.56-2.07,0,0,1.24.07,1.51,1.71,0,0,.85.41.25,1.48a1.77,1.77,0,0,1,.51,1.9,1.92,1.92,0,0,1,.22,2s.87,1.36-.37,2.07a1.27,1.27,0,0,1,.12,1.63,1.11,1.11,0,0,1-.12,1.57,1.7,1.7,0,0,1,0,1.54s1.27,1.05,2.24.23a1.86,1.86,0,0,0,.34-1.81s.61-.58.27-1.12a.81.81,0,0,0-.15-1,1.53,1.53,0,0,0-.24-1.87,2.21,2.21,0,0,0-.39-1.85,1.63,1.63,0,0,0-.56-1.63s.34-1.37-.49-1.95a1.91,1.91,0,0,0-.73-1.61,2,2,0,0,0-1.14-1.85,1.77,1.77,0,0,0-1.27-1.51,1.6,1.6,0,0,0-1.31-1.21,1.08,1.08,0,0,0-.83-1.12s-.14-1.15-1.8-1.05a1.54,1.54,0,0,0-1.32-1,1.48,1.48,0,0,0-1.26-.48l-.43-.3v9.4s0,.29-.2.32c0,0-.08,1.39.82,1.75a1.38,1.38,0,0,0,.32,1.61s-.27,1.36.51,1.85c0,0-.39,1.12.32,1.56a1.85,1.85,0,0,0,.51,1.87s0,1.12.95,1.27c0,0,.61,1.26,1.63,1,0,0,1.15.78.27,7.57a1.15,1.15,0,0,0-.61,1.37s-.6.36-.93,1.88h.19l1.42-1.24a1.08,1.08,0,0,1,.3-1.42,5.08,5.08,0,0,1,.46-1.39,17.7,17.7,0,0,0,.05-6.1,1.54,1.54,0,0,1-.28-.72,1.76,1.76,0,0,1-1-.8,1.5,1.5,0,0,1-1.34-1.36c-.75-.35-.68-1.37-.68-1.37-1-.56-.43-1.87-.43-1.87-.81-.44-.59-1.93-.59-1.93-.8-.51-.37-1.6-.37-1.6-.63-.29-.38-1.37-.38-1.37-.83-.87-.13-2.29-.13-2.29a2.12,2.12,0,0,0,1,2.09c-.45.73.32,1.42.32,1.42-.51.92.52,1.54.52,1.54a1.83,1.83,0,0,0,.43,2c-.55,1.24.48,1.57.48,1.57-.4.91.69,1.39.69,1.39-.33,1.13,1.13,1.16,1.13,1.16-.25.66,1,1.38,1,1.38a1.21,1.21,0,0,1-.35.09,1.55,1.55,0,0,0,.95.5,35.82,35.82,0,0,1,0,6.34s-.24,1-.32,1.18a.85.85,0,0,0,0,.44.88.88,0,0,1-.68.44,1.12,1.12,0,0,0-.47.77Zm-22-14.21.3.3c.27.65-.55.71-.55.71-.4.08-.37.54.06.62l.05,0a.55.55,0,0,1,.46.35c.15.34-.27.69-.27.69a.55.55,0,0,0,.11.68c.18.14.41-.16.41-.16s0-.6,0-.6c0-.6.66-.53.66-.53a1.23,1.23,0,0,0,.81-.18,3.76,3.76,0,0,1-1.11-1.16l-.6-1.12Z" transform="translate(-147.52 -303.17)"/><path class="cls-3" d="M415.58,318.48" transform="translate(-147.52 -303.17)"/><path class="cls-1" d="M386.85,313.54a6.89,6.89,0,0,0,3.88-.84s3.1-1.85,5.69,0a6.64,6.64,0,0,1,6.25-.06s2.69,1.37,4.54,1v.25l2.08.18v1.69h1.16v3.12h-1.18v.76h1.18v3.13h-1.18v1.37h1.18v3h-1.18v1.25h1.18v3.09h-1.18v1h-11.1a3.87,3.87,0,0,1-3.28,0H384.42l0-1.31-1.19-.09.5.31-1,1L381,330.89l-.84-.06s-.72-.41,0-.94l.81-.1,1.69-1.49,1.16,1-.6.07,0,.34,1.16-.16v-2.78l-1.25-.12.53.37-1,1.07L381,326.42l-.75,0s-.84-.5,0-1l.78-.06,1.66-1.53,1.12,1-.59.31,1.22-.06v-2.85L383,322l.66.38-1,1L381,322l-.81-.06s-.78-.41,0-1l.78,0,1.69-1.59,1.09,1-.78.37,1.44-.12,0-2.76-1.25-.09.62.25-1.12,1.12-1.47-1.43-.84,0s-1-.33,0-1l.48-.07,1.89-1.65,1.05,1-.78.47,1.44-.1v-2.23l2.44-.14Zm-1.27,17.1,1.21-1.25V315.1l-1.25.1Zm9.06.69,1.12-2.32c-6.93,1.53-8.25,1.07-8.25,1.07l-1.22,1.28Zm1.85-1.47-.94,1.87a3,3,0,0,0,2,0Zm.59-.91,1.34,2.41h9.07l-1.35-1.19a26.81,26.81,0,0,1-7.44-1A13.46,13.46,0,0,0,397.08,329Zm10.16.84.87.79V315.2l-.87-.1Zm-19.41-.65a21.17,21.17,0,0,0,4.18-.44c2.13-.4,3.94-.72,3.94-.72V314.54l.5-.59.5.59v13.38a38.75,38.75,0,0,1,4.63.84,18.88,18.88,0,0,0,4.66.41V314.73a11,11,0,0,1-4-1.22,6.07,6.07,0,0,0-5.74.32,4.65,4.65,0,0,0-5.18-.27,7.69,7.69,0,0,1-3.49,1Z" transform="translate(-147.52 -303.17)"/><polygon class="cls-1" points="132.67 193.92 127.59 193.92 127.96 192.72 133.03 192.72 132.67 193.92"/><path class="cls-4" d="M166.11,494.49h-1.64a3.11,3.11,0,0,0-3.36,2.76h-.6l.56-3.5c2,0,4,.06,6,.06s4,0,6-.06l-.58,3.38h-.6a6.64,6.64,0,0,0,.08-1c0-1.36-.72-1.68-2-1.68h-2.06l-2.06,10.86a7.18,7.18,0,0,0-.14,1c0,.86.58,1.06,1.18,1.06h.42l-.1.6c-.8,0-1.74-.06-2.78-.06s-1.7,0-2.34.06l.14-.6h.16c1.24,0,1.38-.4,1.78-2.5Z" transform="translate(-147.52 -303.17)"/><path class="cls-4" d="M177.79,505.73c-1.1,1.24-2.22,2.52-4,2.52a2.56,2.56,0,0,1-2.48-2.83c0-2.15,2.18-6.57,5.48-6.57a1.86,1.86,0,0,1,2,1.82c0,1.34-1.32,3.16-4.64,3.16a6,6,0,0,1-1.06-.08,4.83,4.83,0,0,0-.28,1.42c0,1,.44,2.25,1.52,2.25.88,0,1.92-.95,3-2.13Zm-.52-5.28c0-.53-.24-.92-.84-.92-1.48,0-2.84,2.44-3.12,3.56a7.18,7.18,0,0,0,.86.06A3.06,3.06,0,0,0,177.27,500.45Z" transform="translate(-147.52 -303.17)"/><path class="cls-4" d="M188.43,496.25c-.1-1.46-.34-1.9-1.62-1.9h-.3l.14-.6c.48,0,1.36.06,2.66.06,1,0,1.82,0,2.34-.06l-.12.6h-.36c-.72,0-1.06.22-1.06.92,0,.36,0,.65,0,.92l.66,9.3h0l6.08-12.22h.56l.68,12.42h0l5.12-8.77a5.36,5.36,0,0,0,.88-1.89c0-.52-.42-.68-1.1-.68h-.32l.12-.6c.48,0,1.34.06,2.62.06s1.88,0,2.22-.06l-.12.6a2.3,2.3,0,0,0-2.28,1.22l-8.14,12.68h-.6L196,497.17h0l-6.06,11.08h-.6Z" transform="translate(-147.52 -303.17)"/><path class="cls-4" d="M210.17,494.63a5.24,5.24,0,0,0,.14-.86.53.53,0,0,0-.56-.52,3.53,3.53,0,0,0-.92.14l.14-.62,3.3-.76-2.46,11.2,0,0c1-1.66,2.94-4.4,4.68-4.4a1.19,1.19,0,0,1,1.32,1.2,4.19,4.19,0,0,1-.16,1l-1.16,4.7a4.91,4.91,0,0,0-.12.72.41.41,0,0,0,.46.46c.58,0,1.06-.74,1.28-1.32l.54.16c-.18.58-1.34,2.44-2.64,2.44a1.26,1.26,0,0,1-1.24-1.38,5.05,5.05,0,0,1,.18-1.1l1.14-4.48a3.71,3.71,0,0,0,.12-.68.44.44,0,0,0-.46-.48c-1.06,0-2.62,2.12-3.2,3a10.8,10.8,0,0,0-1.8,4.78l-1.54.32Z" transform="translate(-147.52 -303.17)"/><path class="cls-4" d="M228.59,505.69c-.62.92-1.74,2.56-3,2.56-.76,0-.94-.58-.94-1.16a12.09,12.09,0,0,1,.32-2.24l.32-1.36,0,0c-.84,1.64-2.82,4.8-5,4.8-1.32,0-1.78-1.2-1.78-2.2,0-2.18,2.4-7.2,7.1-7.2.48,0,1.12.07,1.46.07a4.39,4.39,0,0,0,.72-.07l-1.38,6.52a5,5,0,0,0-.14,1,.43.43,0,0,0,.44.48c.42,0,1-.82,1.38-1.32Zm-7.68,1.6c1.64,0,5-5,5.12-7.6a2.79,2.79,0,0,0-.7-.08,3.92,3.92,0,0,0-3.76,2.12,9.09,9.09,0,0,0-1.48,4.2C220.09,506.55,220.21,507.29,220.91,507.29Z" transform="translate(-147.52 -303.17)"/><path class="cls-4" d="M232.21,501.75a6.36,6.36,0,0,0,.22-1.14.35.35,0,0,0-.34-.4c-.44,0-.94.54-1.68,1.36l-.42-.36c.08-.12,1.82-2.36,3.18-2.36.64,0,.86.5.86,1.14a11.77,11.77,0,0,1-.66,2.72l0,0c.22-.44.28-.58.46-.88.46-.8,1.72-3,3.7-3a1.55,1.55,0,0,1,.44.07l-.32,1.83a2.29,2.29,0,0,0-.8-.14c-1.54,0-2.7,1.6-3,2.2a19.81,19.81,0,0,0-1.64,5.12l-1.6.32Z" transform="translate(-147.52 -303.17)"/><path class="cls-4" d="M244.81,505.73c-1.1,1.24-2.22,2.52-4,2.52a2.56,2.56,0,0,1-2.48-2.83c0-2.15,2.18-6.57,5.48-6.57a1.86,1.86,0,0,1,2,1.82c0,1.34-1.32,3.16-4.64,3.16a6,6,0,0,1-1.06-.08,4.83,4.83,0,0,0-.28,1.42c0,1,.44,2.25,1.52,2.25.88,0,1.92-.95,3-2.13Zm-.52-5.28c0-.53-.24-.92-.84-.92-1.48,0-2.84,2.44-3.12,3.56a7.18,7.18,0,0,0,.86.06A3.06,3.06,0,0,0,244.29,500.45Z" transform="translate(-147.52 -303.17)"/><path class="cls-4" d="M255.45,496.25c-.1-1.46-.34-1.9-1.62-1.9h-.3l.14-.6c.48,0,1.36.06,2.66.06,1,0,1.82,0,2.34-.06l-.12.6h-.36c-.72,0-1.06.22-1.06.92,0,.36,0,.65,0,.92l.66,9.3h0L264,493.27h.56l.68,12.42h0l5.12-8.77a5.36,5.36,0,0,0,.88-1.89c0-.52-.42-.68-1.1-.68h-.32l.12-.6c.48,0,1.34.06,2.62.06s1.88,0,2.22-.06l-.12.6a2.3,2.3,0,0,0-2.28,1.22l-8.14,12.68h-.6l-.58-11.08h0L257,508.25h-.6Z" transform="translate(-147.52 -303.17)"/><path class="cls-4" d="M281.57,505.69c-.62.92-1.74,2.56-3,2.56-.76,0-.94-.58-.94-1.16a12.09,12.09,0,0,1,.32-2.24l.32-1.36,0,0c-.84,1.64-2.82,4.8-5,4.8-1.32,0-1.78-1.2-1.78-2.2,0-2.18,2.4-7.2,7.1-7.2.48,0,1.12.07,1.46.07a4.39,4.39,0,0,0,.72-.07l-1.38,6.52a5,5,0,0,0-.14,1,.43.43,0,0,0,.44.48c.42,0,1-.82,1.38-1.32Zm-7.68,1.6c1.64,0,5-5,5.12-7.6a2.79,2.79,0,0,0-.7-.08,3.92,3.92,0,0,0-3.76,2.12,9.09,9.09,0,0,0-1.48,4.2C273.07,506.55,273.19,507.29,273.89,507.29Z" transform="translate(-147.52 -303.17)"/><path class="cls-4" d="M283,501.27c.24-.35,1.78-2.42,2.84-2.42.56,0,.88.36.88,1.2a18.37,18.37,0,0,1-.64,3.46l0,0c.54-1,2.62-4.7,4.54-4.7,1.08,0,1.46.64,1.46,1.26,0,1.06-1.46,5.22-1.46,6.2a.45.45,0,0,0,.46.5c.3,0,.58-.1,1.14-.8l.5-.62.42.38c-1,1.24-2,2.4-3.1,2.4-.72,0-1.1-.38-1.1-.94,0-1.08,1.54-6.06,1.54-6.84a.5.5,0,0,0-.52-.5c-.68,0-1.9,1.42-3,3.12a14.22,14.22,0,0,0-1.84,4.92l-1.6.32,1.24-5.5a11.36,11.36,0,0,0,.36-2.06c0-.26-.1-.46-.32-.46-.4,0-1,.74-1.44,1.34Z" transform="translate(-147.52 -303.17)"/><path class="cls-4" d="M304.65,505.69c-.62.92-1.74,2.56-3,2.56-.76,0-.94-.58-.94-1.16a12.09,12.09,0,0,1,.32-2.24l.32-1.36,0,0c-.84,1.64-2.82,4.8-5,4.8-1.32,0-1.78-1.2-1.78-2.2,0-2.18,2.4-7.2,7.1-7.2.48,0,1.12.07,1.46.07a4.39,4.39,0,0,0,.72-.07l-1.38,6.52a5,5,0,0,0-.14,1,.43.43,0,0,0,.44.48c.42,0,1-.82,1.38-1.32Zm-7.68,1.6c1.64,0,5-5,5.12-7.6a2.79,2.79,0,0,0-.7-.08,3.92,3.92,0,0,0-3.76,2.12,9.09,9.09,0,0,0-1.48,4.2C296.15,506.55,296.27,507.29,297,507.29Z" transform="translate(-147.52 -303.17)"/><path class="cls-4" d="M306.05,501.27c.24-.35,1.78-2.42,2.84-2.42.56,0,.88.36.88,1.2a18.37,18.37,0,0,1-.64,3.46l0,0c.54-1,2.62-4.7,4.54-4.7,1.08,0,1.46.64,1.46,1.26,0,1.06-1.46,5.22-1.46,6.2a.45.45,0,0,0,.46.5c.3,0,.58-.1,1.14-.8l.5-.62.42.38c-1,1.24-2,2.4-3.1,2.4-.72,0-1.1-.38-1.1-.94,0-1.08,1.54-6.06,1.54-6.84a.5.5,0,0,0-.52-.5c-.68,0-1.9,1.42-3,3.12a14.22,14.22,0,0,0-1.84,4.92l-1.6.32,1.24-5.5a11.36,11.36,0,0,0,.36-2.06c0-.26-.1-.46-.32-.46-.4,0-1,.74-1.44,1.34Z" transform="translate(-147.52 -303.17)"/><path class="cls-4" d="M326.51,497.83a1.72,1.72,0,0,1,0,.44c0,1-.54,1.56-1.76,2a2.81,2.81,0,0,1,.18,1c0,3.6-5.24,3.76-5.24,5s5.4,1.32,5.4,3.86c0,1.24-1.32,2.4-4.18,2.4-2.66,0-4.3-1-4.3-2.26s1.16-1.94,2.34-2.28v0c-.68-.32-1.1-.7-1.1-1.16,0-.9,1.1-1.42,2.68-2v0a2,2,0,0,1-2-2.18,3.93,3.93,0,0,1,3.8-3.66,2.63,2.63,0,0,1,2.18.94c.3-.06.52-.22.52-.52a1.62,1.62,0,0,0-.5-.94ZM320,508.37c-.64.08-2,.55-2,1.72,0,.83.8,1.74,3,1.74,1.54,0,2.58-.44,2.58-1.36C323.61,509.39,321.69,508.77,320,508.37Zm2.32-8.92c-1.22,0-2.3,1.76-2.3,3.34,0,1,.36,1.46,1.14,1.46,1.48,0,2.1-2.06,2.1-3.32C323.29,499.87,322.87,499.45,322.35,499.45Z" transform="translate(-147.52 -303.17)"/><path class="cls-4" d="M336.67,505.69c-.62.92-1.74,2.56-3,2.56-.76,0-.94-.58-.94-1.16a12.09,12.09,0,0,1,.32-2.24l.32-1.36,0,0c-.84,1.64-2.82,4.8-5,4.8-1.32,0-1.78-1.2-1.78-2.2,0-2.18,2.4-7.2,7.1-7.2.48,0,1.12.07,1.46.07a4.39,4.39,0,0,0,.72-.07l-1.38,6.52a5,5,0,0,0-.14,1,.43.43,0,0,0,.44.48c.42,0,1-.82,1.38-1.32Zm-7.68,1.6c1.64,0,5-5,5.12-7.6a2.79,2.79,0,0,0-.7-.08,3.92,3.92,0,0,0-3.76,2.12,9.09,9.09,0,0,0-1.48,4.2C328.17,506.55,328.29,507.29,329,507.29Z" transform="translate(-147.52 -303.17)"/><path class="cls-4" d="M349.61,498.85a2.86,2.86,0,0,1,3.12,3c0,2.68-2.1,6.38-5.18,6.38a3.13,3.13,0,0,1-3-3.42C344.55,501.61,347.25,498.85,349.61,498.85Zm-.08.6c-2.06,0-3.38,3.54-3.38,5.78,0,1.7.48,2.42,1.46,2.42,2.38,0,3.52-4.92,3.52-6.23C351.13,499.71,350.21,499.45,349.53,499.45Z" transform="translate(-147.52 -303.17)"/><path class="cls-4" d="M362.81,496.25c-.1-1.46-.34-1.9-1.62-1.9h-.3l.14-.6c.48,0,1.36.06,2.66.06,1,0,1.82,0,2.34-.06l-.12.6h-.36c-.72,0-1.06.22-1.06.92,0,.36,0,.65,0,.92l.66,9.3h0l6.08-12.22h.56l.68,12.42h0l5.12-8.77a5.36,5.36,0,0,0,.88-1.89c0-.52-.42-.68-1.1-.68h-.32l.12-.6c.48,0,1.34.06,2.62.06s1.88,0,2.22-.06l-.12.6a2.3,2.3,0,0,0-2.28,1.22l-8.14,12.68H371l-.58-11.08h0l-6.06,11.08h-.6Z" transform="translate(-147.52 -303.17)"/><path class="cls-4" d="M388.93,505.69c-.62.92-1.74,2.56-3,2.56-.76,0-.94-.58-.94-1.16a12.09,12.09,0,0,1,.32-2.24l.32-1.36,0,0c-.84,1.64-2.82,4.8-5,4.8-1.32,0-1.78-1.2-1.78-2.2,0-2.18,2.4-7.2,7.1-7.2.48,0,1.12.07,1.46.07a4.39,4.39,0,0,0,.72-.07l-1.38,6.52a5,5,0,0,0-.14,1,.43.43,0,0,0,.44.48c.42,0,1-.82,1.38-1.32Zm-7.68,1.6c1.64,0,5-5,5.12-7.6a2.79,2.79,0,0,0-.7-.08,3.92,3.92,0,0,0-3.76,2.12,9.09,9.09,0,0,0-1.48,4.2C380.43,506.55,380.55,507.29,381.25,507.29Z" transform="translate(-147.52 -303.17)"/><path class="cls-4" d="M392.49,501.42a7.19,7.19,0,0,0,.2-1c0-.18-.08-.4-.32-.4-.56,0-1.2.92-1.56,1.48l-.44-.32.08-.14c.4-.7,1.62-2.22,2.7-2.22a1.08,1.08,0,0,1,1.14,1.1,7.24,7.24,0,0,1-.24,1.18l-1,4.58a4.64,4.64,0,0,0-.14.78c0,.38.22.56.46.56.48,0,.82-.46,1-.82l.36-.58.46.27c-.5.83-1.4,2.33-2.7,2.33a1.19,1.19,0,0,1-1.14-1.33,4.92,4.92,0,0,1,.18-1.27Zm1.82-6.85a.7.7,0,0,1,.78.74,1.37,1.37,0,0,1-1.28,1.42.72.72,0,0,1-.72-.76A1.32,1.32,0,0,1,394.31,494.57Z" transform="translate(-147.52 -303.17)"/><path class="cls-4" d="M399,499.89h-2l.76-.84h1.42l.38-1.82,1.58-.4-.44,2.22h2.1l-.1.84h-2.2l-1.18,5.42a9.86,9.86,0,0,0-.26,1.32.45.45,0,0,0,.44.5c.6,0,1.32-1.2,1.6-1.66l.5.26c-.7,1.24-1.82,2.52-2.94,2.52-.7,0-1.12-.5-1.12-1.3a8.46,8.46,0,0,1,.26-1.72Z" transform="translate(-147.52 -303.17)"/><path class="cls-4" d="M413.55,505.69c-.62.92-1.74,2.56-3,2.56-.76,0-.94-.58-.94-1.16a12.09,12.09,0,0,1,.32-2.24l.32-1.36,0,0c-.84,1.64-2.82,4.8-5,4.8-1.32,0-1.78-1.2-1.78-2.2,0-2.18,2.4-7.2,7.1-7.2.48,0,1.12.07,1.46.07a4.39,4.39,0,0,0,.72-.07l-1.38,6.52a5,5,0,0,0-.14,1,.43.43,0,0,0,.44.48c.42,0,1-.82,1.38-1.32Zm-7.68,1.6c1.64,0,5-5,5.12-7.6a2.79,2.79,0,0,0-.7-.08,3.92,3.92,0,0,0-3.76,2.12,9.09,9.09,0,0,0-1.48,4.2C405.05,506.55,405.17,507.29,405.87,507.29Z" transform="translate(-147.52 -303.17)"/><path class="cls-4" d="M418.21,494.63a5.24,5.24,0,0,0,.14-.86.53.53,0,0,0-.56-.52,3.53,3.53,0,0,0-.92.14l.14-.62,3.3-.76-2.46,11.2,0,0c1-1.66,2.94-4.4,4.68-4.4a1.19,1.19,0,0,1,1.32,1.2,4.19,4.19,0,0,1-.16,1l-1.16,4.7a4.91,4.91,0,0,0-.12.72.41.41,0,0,0,.46.46c.58,0,1.06-.74,1.28-1.32l.54.16c-.18.58-1.34,2.44-2.64,2.44a1.26,1.26,0,0,1-1.24-1.38,5.05,5.05,0,0,1,.18-1.1l1.14-4.48a3.71,3.71,0,0,0,.12-.68.44.44,0,0,0-.46-.48c-1.06,0-2.62,2.12-3.2,3a10.8,10.8,0,0,0-1.8,4.78l-1.54.32Z" transform="translate(-147.52 -303.17)"/><path class="cls-4" d="M436.63,505.69c-.62.92-1.74,2.56-3,2.56-.76,0-.94-.58-.94-1.16a12.09,12.09,0,0,1,.32-2.24l.32-1.36,0,0c-.84,1.64-2.82,4.8-5,4.8-1.32,0-1.78-1.2-1.78-2.2,0-2.18,2.4-7.2,7.1-7.2.48,0,1.12.07,1.46.07a4.39,4.39,0,0,0,.72-.07l-1.38,6.52a5,5,0,0,0-.14,1,.43.43,0,0,0,.44.48c.42,0,1-.82,1.38-1.32Zm-7.68,1.6c1.64,0,5-5,5.12-7.6a2.79,2.79,0,0,0-.7-.08,3.92,3.92,0,0,0-3.76,2.12,9.09,9.09,0,0,0-1.48,4.2C428.13,506.55,428.25,507.29,429,507.29Z" transform="translate(-147.52 -303.17)"/><path class="cls-4" d="M169.65,519.9h-.35c-.3-1.93-1.93-2.64-3.54-2.64-1.78,0-3.51,1.41-3.51,4s1.44,4.81,3.76,4.81a4.66,4.66,0,0,0,3.73-2.41l.12,1.58a7.07,7.07,0,0,1-4.28,1.4c-4.64,0-5.32-3.6-5.32-5.06,0-2.17,1.54-4.84,5.71-4.84a11.32,11.32,0,0,1,3.68.75Z" transform="translate(-147.52 -303.17)"/><path class="cls-4" d="M173,526.07c.87,0,1.11-.34,1.11-1.09v-6.57c0-.75-.24-1.07-1.11-1.08v-.41l1.95,0,2,0v.41c-.87,0-1.11.33-1.11,1.08v2.71h5v-2.71c0-.75-.25-1.07-1.12-1.08v-.41l2,0,2,0v.41c-.87,0-1.12.33-1.12,1.08V525c0,.75.25,1.08,1.12,1.09v.4l-2,0-2,0v-.4c.87,0,1.12-.34,1.12-1.09v-3.3h-5V525c0,.75.24,1.08,1.11,1.09v.4l-2,0-1.95,0Z" transform="translate(-147.52 -303.17)"/><path class="cls-4" d="M186.61,526.07c.87,0,1.11-.34,1.11-1.09v-6.57c0-.75-.24-1.07-1.11-1.08v-.41c.63,0,1.16,0,1.66,0,.87,0,1.76,0,2.63,0,2.33,0,3.07,1.17,3.07,2.48a2.45,2.45,0,0,1-1.87,2.34l1.68,3.08c.6,1.11.93,1.37,1.69,1.48v.32c-.2,0-.4,0-.62,0-1.78,0-2.52-.62-3.27-2.22l-.52-1.11c-.56-1.19-.75-1.29-1.65-1.3v3c0,.75.24,1.08,1.11,1.09v.4l-2,0-2,0Zm2.8-4.55a4.32,4.32,0,0,0,.88.1c1.21,0,1.94-.55,1.94-1.85a2.23,2.23,0,0,0-2.24-2.44,2.56,2.56,0,0,0-.58,0Z" transform="translate(-147.52 -303.17)"/><path class="cls-4" d="M198.21,526.07c.87,0,1.11-.34,1.11-1.09v-6.57c0-.75-.24-1.07-1.11-1.08v-.41l1.95,0,2,0v.41c-.87,0-1.11.33-1.11,1.08V525c0,.75.24,1.08,1.11,1.09v.4l-2,0-1.95,0Z" transform="translate(-147.52 -303.17)"/><path class="cls-4" d="M205.34,523.88h.52a2.74,2.74,0,0,0,2.56,2.26,1.74,1.74,0,0,0,2-1.59c0-2.14-4.89-2-4.89-5,0-.68.39-2.79,3.38-2.79a8,8,0,0,1,2.48.35l.08,2.37h-.5a2.29,2.29,0,0,0-2.45-2.21,1.56,1.56,0,0,0-1.73,1.42c0,2,5,2.13,5,5.12,0,1.58-1.13,2.85-3.35,2.85a11.53,11.53,0,0,1-2.92-.45Z" transform="translate(-147.52 -303.17)"/><path class="cls-4" d="M217.19,526.07c.87,0,1.11-.34,1.11-1.09v-7.39h-1.18c-1.07,0-1.78.3-1.86,2h-.5l.09-2.66,4.3,0c1.43,0,2.87,0,4.3,0l.08,2.66H223c-.08-1.69-.79-2-1.87-2H220V525c0,.75.25,1.08,1.12,1.09v.4l-2,0-2,0Z" transform="translate(-147.52 -303.17)"/><path class="cls-4" d="M236,519.9h-.35c-.3-1.93-1.93-2.64-3.54-2.64-1.78,0-3.51,1.41-3.51,4s1.44,4.81,3.76,4.81a4.66,4.66,0,0,0,3.73-2.41l.12,1.58a7.07,7.07,0,0,1-4.28,1.4c-4.64,0-5.32-3.6-5.32-5.06,0-2.17,1.54-4.84,5.71-4.84a11.32,11.32,0,0,1,3.68.75Z" transform="translate(-147.52 -303.17)"/><path class="cls-4" d="M239.4,526.07c.87,0,1.11-.34,1.11-1.09v-6.57c0-.75-.24-1.07-1.11-1.08v-.41l1.95,0,2,0v.41c-.87,0-1.11.33-1.11,1.08v2.71h5v-2.71c0-.75-.25-1.07-1.12-1.08v-.41l2,0,2,0v.41c-.87,0-1.11.33-1.11,1.08V525c0,.75.24,1.08,1.11,1.09v.4l-2,0-2,0v-.4c.87,0,1.12-.34,1.12-1.09v-3.3h-5V525c0,.75.24,1.08,1.11,1.09v.4l-2,0-1.95,0Z" transform="translate(-147.52 -303.17)"/><path class="cls-4" d="M263.4,517.33c-.88,0-1.1.33-1.12,1.08l0,4.31c0,1.95-.85,3.93-3.79,3.93-2.48,0-4.38-1.08-4.38-3.95v-4.29c0-.75-.24-1.07-1.11-1.08v-.41c1.07,0,1.53,0,2,0s.88,0,2,0v.41c-.88,0-1.12.33-1.12,1.08V523a2.8,2.8,0,0,0,2.78,3.1c2.33,0,3.16-1.51,3.16-3.84,0-.75,0-1.29,0-1.88l0-1.94c0-.81-.19-1.15-1.17-1.15v-.41c.5,0,1,0,1.45,0s1,0,1.49,0Z" transform="translate(-147.52 -303.17)"/><path class="cls-4" d="M266.32,526.07c.87,0,1.11-.34,1.11-1.09v-6.57c0-.75-.24-1.07-1.11-1.08v-.41c.63,0,1.17,0,1.66,0,.87,0,1.76,0,2.63,0,2.33,0,3.07,1.17,3.07,2.48a2.45,2.45,0,0,1-1.86,2.34l1.67,3.08c.61,1.11.93,1.37,1.69,1.48v.32c-.2,0-.4,0-.62,0-1.78,0-2.52-.62-3.27-2.22l-.52-1.11c-.56-1.19-.75-1.29-1.65-1.3v3c0,.75.24,1.08,1.11,1.09v.4l-2,0-2,0Zm2.8-4.55a4.41,4.41,0,0,0,.89.1c1.2,0,1.93-.55,1.93-1.85a2.23,2.23,0,0,0-2.24-2.44,2.56,2.56,0,0,0-.58,0Z" transform="translate(-147.52 -303.17)"/><path class="cls-4" d="M287.62,519.9h-.34c-.3-1.93-1.93-2.64-3.54-2.64-1.79,0-3.52,1.41-3.52,4s1.45,4.81,3.77,4.81a4.66,4.66,0,0,0,3.73-2.41l.12,1.58a7.07,7.07,0,0,1-4.28,1.4c-4.64,0-5.32-3.6-5.32-5.06,0-2.17,1.54-4.84,5.71-4.84a11.26,11.26,0,0,1,3.67.75Z" transform="translate(-147.52 -303.17)"/><path class="cls-4" d="M291,526.07c.88,0,1.12-.34,1.12-1.09v-6.57c0-.75-.24-1.07-1.12-1.08v-.41l2,0,2,0v.41c-.87,0-1.11.33-1.11,1.08v2.71h5v-2.71c0-.75-.24-1.07-1.11-1.08v-.41l2,0,2,0v.41c-.88,0-1.12.33-1.12,1.08V525c0,.75.24,1.08,1.12,1.09v.4l-2,0-2,0v-.4c.87,0,1.11-.34,1.11-1.09v-3.3h-5V525c0,.75.24,1.08,1.11,1.09v.4l-2,0-2,0Z" transform="translate(-147.52 -303.17)"/><path class="cls-4" d="M310.63,526.07c.87,0,1.12-.34,1.12-1.09v-6.57c0-.75-.25-1.07-1.12-1.08v-.41c.55,0,1.08,0,1.45,0s.68,0,1.07,0l6.32,7.07,0-5.51c0-.81-.19-1.15-1.15-1.15v-.41c.49,0,1,0,1.44,0s1,0,1.49,0v.41c-.87,0-1.11.33-1.11,1.08v8.15h-.54l-7.25-8,.11,6.3c0,1,.26,1.13,1.11,1.21v.4c-.4,0-1.13,0-1.45,0s-1,0-1.45,0Z" transform="translate(-147.52 -303.17)"/><path class="cls-4" d="M324.07,526.07c.87,0,1.11-.34,1.11-1.09v-6.57c0-.75-.24-1.07-1.11-1.08v-.41c.45,0,1.11,0,1.79,0,2.06,0,3.71,0,4.95,0l.06,2.26h-.43c-.22-1.29-.79-1.75-2.4-1.75h-1.17v3.88h1c1.22,0,1.4-.44,1.49-1.29h.46c0,.52,0,1,0,1.45,0,.63,0,1.14,0,1.68h-.46c0-1.06-.33-1.33-1.5-1.33h-1V525c0,.62.25,1,1.51,1s2.33-.25,2.65-1.94h.45a24.28,24.28,0,0,0-.2,2.45c-1.3,0-3,0-5.11,0-1,0-1.83,0-2.1,0Z" transform="translate(-147.52 -303.17)"/><path class="cls-4" d="M334.39,516.92c1.14,0,1.58,0,2,0s.83,0,2,0v.41H338c-.45,0-.72.2-.72.56a2.17,2.17,0,0,0,.19.72l1.93,5.46h0l2.27-7.32h.24l2.61,7.35h0l1.61-5.41a3.81,3.81,0,0,0,.16-.76c0-.46-.36-.59-1-.6v-.41c.45,0,1.05,0,1.5,0s1.06,0,1.49,0v.41c-.92,0-1.14.3-1.42,1.16l-2.72,8.07h-.39l-2.48-6.82h0L339,526.56h-.4l-2.94-8c-.39-1.1-.59-1.19-1.3-1.23Z" transform="translate(-147.52 -303.17)"/><path class="cls-4" d="M357,526.22l6-8.52H359.5c-.92,0-1.51.32-1.68,1.87h-.45l.08-2.65c1.09,0,2.59,0,4.08,0s2.72,0,4.08,0l-6.2,8.88h3.69c1.39,0,1.77-.64,2-2h.47l-.13,2.69c-1.13,0-2.66,0-4.18,0-1.68,0-3.21,0-4.2,0Z" transform="translate(-147.52 -303.17)"/><path class="cls-4" d="M368.49,526.07c.87,0,1.11-.34,1.11-1.09v-6.57c0-.75-.24-1.07-1.11-1.08v-.41c.45,0,1.11,0,1.8,0,2,0,3.7,0,4.94,0l.06,2.26h-.43c-.22-1.29-.79-1.75-2.4-1.75h-1.17v3.88h1c1.22,0,1.4-.44,1.49-1.29h.46c0,.52,0,1,0,1.45,0,.63,0,1.14,0,1.68h-.46c0-1.06-.33-1.33-1.5-1.33h-1V525c0,.62.26,1,1.52,1s2.32-.25,2.64-1.94h.45a24.28,24.28,0,0,0-.2,2.45c-1.3,0-3,0-5.11,0-1,0-1.83,0-2.1,0Z" transform="translate(-147.52 -303.17)"/><path class="cls-4" d="M378.75,526.07c.92-.06,1.18-.19,1.91-2l2.95-7.12h.23l3.63,8.12c.35.77.68,1,1.37,1v.4c-.92,0-1.51,0-2,0s-1.11,0-2.05,0v-.4c.75,0,1-.14,1-.5a4.11,4.11,0,0,0-.38-1.1l-.54-1.26h-3.07l-.39,1.09a4.48,4.48,0,0,0-.36,1.26c0,.35.16.5,1,.51v.4c-1.15,0-1.28,0-1.61,0s-.46,0-1.6,0Zm5.83-3.37-1.45-3.44-1.23,3.44Z" transform="translate(-147.52 -303.17)"/><path class="cls-4" d="M391.44,526.07c.88,0,1.12-.34,1.12-1.09v-6.57c0-.75-.24-1.07-1.12-1.08v-.41l2,0,2,0v.41c-.87,0-1.11.33-1.11,1.08V525c0,.7.38.93,1.5.93,1.77,0,2.65-.23,2.92-1.89h.46l-.22,2.45c-1.35,0-3.91,0-6.47,0a8.94,8.94,0,0,0-1,0Z" transform="translate(-147.52 -303.17)"/><path class="cls-4" d="M401.7,526.07c.93-.06,1.18-.19,1.92-2l2.95-7.12h.23l3.63,8.12c.35.77.67,1,1.37,1v.4c-.93,0-1.52,0-2.05,0s-1.12,0-2.06,0v-.4c.76,0,1-.14,1-.5a3.74,3.74,0,0,0-.38-1.1l-.53-1.26h-3.07l-.39,1.09a4.07,4.07,0,0,0-.36,1.26c0,.35.16.5,1,.51v.4c-1.15,0-1.29,0-1.61,0s-.47,0-1.61,0Zm5.83-3.37-1.45-3.44-1.23,3.44Z" transform="translate(-147.52 -303.17)"/><path class="cls-4" d="M414.3,526.07c.88,0,1.12-.34,1.12-1.09v-6.57c0-.75-.24-1.07-1.12-1.08v-.41c.55,0,1.08,0,1.45,0s.69,0,1.08,0l6.31,7.07,0-5.51c0-.81-.19-1.15-1.15-1.15v-.41c.49,0,1,0,1.45,0s1,0,1.48,0v.41c-.87,0-1.11.33-1.11,1.08v8.15h-.54l-7.25-8,.11,6.3c0,1,.27,1.13,1.11,1.21v.4c-.4,0-1.13,0-1.45,0s-1,0-1.45,0Z" transform="translate(-147.52 -303.17)"/><path class="cls-4" d="M427.74,526.07c.87,0,1.11-.34,1.11-1.09v-6.57c0-.75-.24-1.07-1.11-1.08v-.41c.42,0,.92,0,1.57,0,1.18,0,2.36,0,3.48,0,3.41,0,5,2.08,5,4.91,0,1.44-.78,4.64-5.48,4.64-1,0-2.08,0-3.16,0-.56,0-1.06,0-1.43,0Zm2.8-1.05c0,.71.31.89,1.32.89,2.13,0,4-.93,4-3.9a4.93,4.93,0,0,0-1.44-3.87c-.65-.55-1.34-.71-2.9-.71h-.94Z" transform="translate(-147.52 -303.17)"/><path class="cls-4" d="M181.14,420.53l-.08,8.53c0,4-.25,5.26-1.23,7-1.67,3.08-4.83,4.72-9,4.72-5.15,0-9.14-2.69-10.2-6.94a16.69,16.69,0,0,1-.43-4.35v-8.86c0-2.83-.29-3.26-2.54-3.7a2.25,2.25,0,0,1-.4-.07v-.84h.69a30.25,30.25,0,0,0,3.08.11c1.38,0,2.76,0,3.34,0l2-.08.84,0v.83c-2.32.26-2.8.84-2.8,3.56v9.91c0,3,.26,4.28,1.06,5.7a7.23,7.23,0,0,0,6.53,3.55,7.35,7.35,0,0,0,7.55-6.28,14.4,14.4,0,0,0,.15-2.35V430l-.22-9.29c-.07-3.09-.4-3.56-2.76-3.82l-.44,0v-.84l.4,0,1.56.07c.48,0,1,0,1.53,0s1.09,0,2.28,0l1.46,0,.54,0v.87C181.86,417,181.17,417.88,181.14,420.53Z" transform="translate(-147.52 -303.17)"/><path class="cls-4" d="M214.49,417.12h-.25c-2.14.1-2.76.83-2.76,3.26v20.51h-.87l-18.84-20.65,0,15.13c0,3.16.61,3.92,3.23,4v.91h-7.66v-.87c2.47-.18,3-.94,3-4V419.66c0-1.78-.76-2.51-2.69-2.58h-.25v-.91l.54,0h1.35l1.41,0,1.38,0h1.71L209.88,434V420.49c0-2.65-.47-3.19-3-3.37v-1h.58c1,.07,2.58.1,3.41.1l1.49,0h2.14Z" transform="translate(-147.52 -303.17)"/><path class="cls-4" d="M226.54,417c-2.21.07-2.72.69-2.72,3.27v16c0,2.58.51,3.2,2.72,3.23v.84c-2.14,0-2.9,0-4.68,0s-2.65,0-4.83,0v-.84c2.18,0,2.73-.65,2.73-3.23v-16c0-2.58-.55-3.23-2.73-3.27v-.83c2.18,0,3.45,0,5.59,0s2.44,0,3.92,0Z" transform="translate(-147.52 -303.17)"/><path class="cls-4" d="M256.05,416.9c-2.17.14-3.3.91-4.06,2.76l-.51,1.3-8.06,19.79h-.76l-9.29-19.9c-1.42-3.08-2-3.59-4.07-3.92v-.83h2.87c.51,0,2.14,0,3.38,0h1.88l2.07,0,.8,0v.84c-1.92,0-3,.65-3,1.81a4,4,0,0,0,.4,1.56l6.79,15.1,5.45-15.1a7.22,7.22,0,0,0,.4-1.81c0-1-.62-1.45-2.29-1.53v-.83h.54c.22,0,.73,0,1.49,0,1,0,1.6,0,1.85,0s.91,0,1.85,0l1.6,0,.65,0Z" transform="translate(-147.52 -303.17)"/><path class="cls-4" d="M274.64,416.43l.14,1.67c.08.9.18,1.81.37,3.12l.07.58-1.16.11a5.49,5.49,0,0,0-1.24-2.94c-1.12-1.27-2-1.53-5.48-1.53H264.8v9.8h2.47c3.23,0,3.88-.43,4-2.9l0-.47h1.2v.36l-.07,1.6c0,.47,0,1.12,0,2s0,1.34,0,1.74l.07,1.78v.61h-1.2c0-2.75-.69-3.3-4.21-3.3h-2.36V436c0,2.47.59,3,3.38,3,5,0,6.57-1.09,7.4-5.08l1.17.22c-.18,1.45-.37,3.41-.48,5.44l0,.73c-1.56,0-3.74,0-6.46,0-1.16,0-1.85,0-6.21,0h-3l-2.5.07v-.83c2.17,0,2.72-.66,2.72-3.23V420.24c0-2.62-.55-3.23-2.72-3.27v-.87l.76,0,1.85,0h2.69l3.19,0,3.7,0,3.31,0,1.12,0Z" transform="translate(-147.52 -303.17)"/><path class="cls-4" d="M280.66,416.1c1,0,2,0,3.12,0,1.49,0,3,0,4.69-.11,1.16,0,2.1-.08,2.83-.08,4.39,0,7.26,2.51,7.26,6.25a6.1,6.1,0,0,1-3.09,5.37,8.62,8.62,0,0,1-1.89.72,5.14,5.14,0,0,1,1.28,1.71l2,3.7c2.14,4,2.5,4.5,3.44,5.19a3,3,0,0,0,1.24.55,4.79,4.79,0,0,0,1.12.11v.83a13.79,13.79,0,0,1-2.32.18,7.33,7.33,0,0,1-5.44-2.06c-1.09-1.13-2.11-2.87-4.07-6.94-1-2-1.74-2.57-3.63-2.57h-.22v6.53c0,3.19.4,3.66,3.16,3.81v1l-3.3,0h-2.4c-1.31,0-2.18,0-4.25,0v-.84c2.22,0,2.73-.65,2.73-3.23V420.2c0-2.61-.51-3.23-2.73-3.27v-.87Zm6.28,11.69c.55,0,.73,0,1.05,0a10.18,10.18,0,0,0,3.71-.5,4.21,4.21,0,0,0,2.36-4.18,6.27,6.27,0,0,0-2.36-5.08,5.54,5.54,0,0,0-3.74-.94h-1Z" transform="translate(-147.52 -303.17)"/><path class="cls-4" d="M320.59,422.42h-1.16a7.47,7.47,0,0,0-1.05-3,6.08,6.08,0,0,0-5.05-2.65,4,4,0,0,0-4.25,3.7c0,1.31.73,2.32,2.43,3.38l3.6,2.07c3.34,1.85,4.68,2.94,5.52,4.5a6.45,6.45,0,0,1,.69,3.08c0,4.36-3.24,7.26-8,7.26a38.52,38.52,0,0,1-7.44-.83l-.29-6.1,1.2-.11.07.25a6.27,6.27,0,0,0,2.76,4.25,6.88,6.88,0,0,0,4,1.34,4.22,4.22,0,0,0,4.4-4.13,3.4,3.4,0,0,0-.55-1.86c-.76-1.12-1.52-1.59-5.92-3.84-4-2-5.88-4.25-5.88-7a7.38,7.38,0,0,1,4.43-6.5,11.18,11.18,0,0,1,4-.65,41.64,41.64,0,0,1,5.77.54l.44.07Z" transform="translate(-147.52 -303.17)"/><path class="cls-4" d="M333.84,417c-2.22.07-2.72.69-2.72,3.27v16c0,2.58.5,3.2,2.72,3.23v.84c-2.14,0-2.91,0-4.68,0s-2.65,0-4.83,0v-.84c2.18,0,2.72-.65,2.72-3.23v-16c0-2.58-.54-3.23-2.72-3.27v-.83c2.18,0,3.45,0,5.59,0,2,0,2.43,0,3.92,0Z" transform="translate(-147.52 -303.17)"/><path class="cls-4" d="M358.85,422.74h-1.2c-.18-2.18-.73-3.37-1.78-4.06-.83-.58-1.31-.69-3.19-.69h-2.87v18.25c0,2.65.51,3.27,2.72,3.31v.8l-3,0H346c-.69,0-1.67,0-3,0v-.8c2.22,0,2.73-.69,2.73-3.27V418H342c-2.72,0-3.73,1.16-4.17,4.79H336.6l.32-6.71.55,0H352.2l3.38,0,2.43,0h.66Z" transform="translate(-147.52 -303.17)"/><path class="cls-4" d="M385.27,417c-1.71.18-2.39.76-3.59,3l-6.14,11.72v4.4c0,2.72.47,3.23,3.2,3.37v.84l-.84,0h-8.6l-1.16,0v-.84c2.83,0,3.34-.54,3.34-3.41v-4.36l-5-10.23c-1.88-3.92-2.35-4.36-4.64-4.58v-.79h.72l2,0c1.31,0,2.32,0,3,0,1.2,0,3.45,0,4.61,0l.66,0V417c-2.15.18-2.69.51-2.69,1.63a4,4,0,0,0,.4,1.67l4.5,9.51,4.5-9.36a3.89,3.89,0,0,0,.47-1.74c0-1.06-.65-1.56-2.17-1.67v-.84l.5,0,1.31,0h3.85l1.12,0h.62Z" transform="translate(-147.52 -303.17)"/><path class="cls-4" d="M406.39,440.82c-8.05,0-14.11-5.45-14.11-12.71s5.62-12.48,13.17-12.48c7.8,0,13.39,5.3,13.39,12.7S413.73,440.82,406.39,440.82Zm-1.48-24c-4.76,0-7.66,3.92-7.66,10.31,0,7.22,3.81,12.48,9,12.48,4.64,0,7.62-4,7.62-10.3v-.44C413.69,421.65,410,416.79,404.91,416.79Z" transform="translate(-147.52 -303.17)"/><path class="cls-4" d="M437.72,416.83c0,.29,0,.61.07,1,0,.8,0,1.34.07,1.67L438,421l.07.83L437,422a5.16,5.16,0,0,0-1.16-2.9c-1.16-1.35-2.5-1.75-6.13-1.75H427v9.91h2.69c3.63,0,4.32-.51,4.43-3.34h1.08c-.07,1.64-.1,3-.1,4.58,0,.8,0,1.63,0,2.72l0,.65h-1.09c-.18-2.61-1-3.23-4.57-3.23H427v7.62c0,2.65.55,3.27,2.87,3.27h.33l0,.84-.69,0h-9.07l-.29,0v-.84c2.18,0,2.72-.65,2.72-3.23V420.2c0-2.61-.51-3.27-2.72-3.3v-.84c.4,0,.69,0,.87,0s1.09,0,2.68,0l2.8.07H434c1.7,0,2.17,0,3.66,0Z" transform="translate(-147.52 -303.17)"/><path class="cls-4" d="M185.49,476.05c-4.28,3-8,4.23-12.57,4.23-9.14,0-15.34-5.74-15.34-14.29,0-8.79,6.58-14.79,16.22-14.79a30.36,30.36,0,0,1,11,2.27v.62l0,1.89v3.56l0,.88h-.93c-.67-4.65-4.69-7.88-9.84-7.88-4.61,0-7.8,2.06-9.56,6.21a16.31,16.31,0,0,0-1.17,6c0,8,4.74,14.08,10.89,14.08,3,0,5.49-1.22,8.18-3.94a15.72,15.72,0,0,0,2.68-3.44h.29Z" transform="translate(-147.52 -303.17)"/><path class="cls-4" d="M211,473.83c1.68,3.85,2.52,4.69,5.2,5v.92l-1.09,0H204.34v-1h.34c1.55,0,2.3-.5,2.3-1.63a4.13,4.13,0,0,0-.33-1.39L204.34,470h-8.92l-1.93,5.32a6.44,6.44,0,0,0-.46,1.76c0,1.09.75,1.55,2.51,1.59l.5,0v1c-1.42,0-1.88,0-3.6,0h-5.91v-1c2.31,0,3.82-1.34,5.07-4.36L201.16,451Zm-15.2-5.07h7.79l-4.15-10.1Z" transform="translate(-147.52 -303.17)"/><path class="cls-4" d="M248.29,452.92H248c-2.47.13-3.18,1-3.18,3.77v23.68h-1l-21.75-23.84L222,474c0,3.64.71,4.52,3.73,4.65v1.05h-8.84v-1c2.85-.21,3.48-1.09,3.48-4.61V455.85c0-2.05-.88-2.89-3.1-3H217v-1.05l.63,0h1.55l1.64,0,1.59,0h2L243,472.45V456.82c0-3.06-.54-3.69-3.48-3.9v-1.13h.67c1.18.08,3,.13,3.94.13l1.72-.05h2.47Z" transform="translate(-147.52 -303.17)"/><path class="cls-4" d="M276.32,459.42h-1.38c-.21-2.52-.84-3.9-2.05-4.7-1-.67-1.51-.79-3.69-.79h-3.31V475c0,3.06.59,3.77,3.14,3.82v.92l-3.43,0h-4.15c-.8,0-1.93,0-3.44,0v-.92c2.56-.05,3.15-.8,3.15-3.78V454h-4.28c-3.14,0-4.31,1.34-4.82,5.53h-1.42l.38-7.75.63,0h17l3.89,0,2.81,0h.76Z" transform="translate(-147.52 -303.17)"/><path class="cls-4" d="M297.94,452.13l.17,1.92c.09,1.05.21,2.1.42,3.61l.09.67-1.35.12a6.37,6.37,0,0,0-1.42-3.39c-1.3-1.47-2.35-1.76-6.33-1.76h-2.93v11.31h2.85c3.73,0,4.48-.5,4.65-3.35l0-.55h1.38v.42l-.08,1.85c0,.54,0,1.3,0,2.26s0,1.55,0,2l.08,2.05V470h-1.38c0-3.19-.79-3.82-4.86-3.82h-2.72v8.55c0,2.85.67,3.44,3.89,3.44,5.74,0,7.59-1.26,8.55-5.87l1.34.25c-.21,1.68-.42,3.94-.54,6.29l0,.84c-1.81-.05-4.32-.05-7.46-.05-1.34,0-2.14,0-7.17.05H281.6c-1.59,0-1.84,0-2.89.08v-1c2.52-.05,3.15-.76,3.15-3.73V456.53c0-3-.63-3.73-3.15-3.78v-1l.88,0,2.14,0h3.1l3.69,0,4.27,0,3.81,0,1.3,0Z" transform="translate(-147.52 -303.17)"/><path class="cls-4" d="M304.9,451.75c1.17,0,2.35,0,3.6,0,1.72,0,3.48,0,5.41-.12,1.34-.05,2.43-.09,3.27-.09,5.07,0,8.38,2.89,8.38,7.21A7.05,7.05,0,0,1,322,465a10.91,10.91,0,0,1-2.18.84,5.89,5.89,0,0,1,1.46,2l2.26,4.27c2.48,4.61,2.9,5.2,4,6a3.45,3.45,0,0,0,1.42.63,5.61,5.61,0,0,0,1.3.13v1a16.32,16.32,0,0,1-2.68.21,8.48,8.48,0,0,1-6.29-2.39c-1.25-1.3-2.43-3.31-4.69-8-1.13-2.35-2-3-4.19-3h-.25v7.55c0,3.68.46,4.23,3.64,4.39v1.18l-3.81,0h-2.76c-1.51,0-2.52,0-4.91,0v-1c2.56,0,3.15-.75,3.15-3.73V456.48c0-3-.59-3.73-3.15-3.77v-1Zm7.25,13.49c.63,0,.84,0,1.21,0a11.86,11.86,0,0,0,4.28-.58c1.72-.72,2.72-2.48,2.72-4.82a7.25,7.25,0,0,0-2.72-5.87c-1.22-.84-2.14-1.09-4.32-1.09h-1.17Z" transform="translate(-147.52 -303.17)"/><path class="cls-4" d="M331.67,451.71c.34,0,1.22,0,2.6,0,1.72,0,2.77,0,3.1,0,.63,0,1.64,0,3,0,.79,0,1.51,0,2.14,0a12.47,12.47,0,0,1,4.6.58,6.64,6.64,0,0,1,4.74,6.25c0,3.47-2.81,6-7.08,6.49a12.59,12.59,0,0,1,3.81.84,6.8,6.8,0,0,1,4.48,6.54c0,4.73-3.56,7.29-10,7.29H330.92v-1c2.56,0,3.18-.75,3.18-3.73V456.44c0-3-.62-3.73-3.18-3.77v-1A5.91,5.91,0,0,0,331.67,451.71Zm7.13,13a13.49,13.49,0,0,0,1.84.08c3,0,4.15-.42,5.28-1.93a6.42,6.42,0,0,0-3.6-9.76,11.22,11.22,0,0,0-2.18-.17H338.8Zm0,10.13c0,3,.58,3.69,3.1,3.69,3.89,0,5.86-1.76,5.86-5.32s-2.22-6.49-5.19-7a14.38,14.38,0,0,0-2.43-.21,12.31,12.31,0,0,0-1.34.09Z" transform="translate(-147.52 -303.17)"/><path class="cls-4" d="M382.25,456.86l-.09,9.85c0,4.61-.29,6.07-1.42,8.12-1.93,3.57-5.57,5.45-10.44,5.45-5.94,0-10.55-3.1-11.77-8a18.89,18.89,0,0,1-.5-5V457c0-3.27-.34-3.77-2.94-4.28a2.34,2.34,0,0,1-.46-.08v-1h.8c1.59.12,2.14.12,3.56.12,1.59,0,3.19,0,3.86,0l2.34-.08,1,0v1c-2.69.29-3.23,1-3.23,4.1v11.44c0,3.48.29,4.95,1.22,6.58a8.35,8.35,0,0,0,7.54,4.11,8.49,8.49,0,0,0,8.71-7.25,16.37,16.37,0,0,0,.17-2.72v-1.05l-.25-10.73c-.08-3.56-.46-4.1-3.19-4.4l-.5,0v-1l.46,0,1.8.08c.55,0,1.14,0,1.76,0s1.26,0,2.64,0l1.68,0,.63,0v1C383.08,452.84,382.29,453.8,382.25,456.86Z" transform="translate(-147.52 -303.17)"/><path class="cls-4" d="M387.61,451.75c1.17,0,2.35,0,3.6,0,1.72,0,3.48,0,5.41-.12,1.34-.05,2.43-.09,3.27-.09,5.07,0,8.38,2.89,8.38,7.21a7,7,0,0,1-3.57,6.2,10.52,10.52,0,0,1-2.17.84,5.89,5.89,0,0,1,1.46,2l2.26,4.27c2.48,4.61,2.9,5.2,4,6a3.45,3.45,0,0,0,1.42.63,5.61,5.61,0,0,0,1.3.13v1a16.32,16.32,0,0,1-2.68.21A8.48,8.48,0,0,1,404,477.6c-1.25-1.3-2.43-3.31-4.69-8-1.13-2.35-2-3-4.19-3h-.25v7.55c0,3.68.46,4.23,3.64,4.39v1.18l-3.81,0h-2.77c-1.5,0-2.51,0-4.9,0v-1c2.56,0,3.15-.75,3.15-3.73V456.48c0-3-.59-3.73-3.15-3.77v-1Zm7.25,13.49c.63,0,.84,0,1.21,0a11.86,11.86,0,0,0,4.28-.58c1.71-.72,2.72-2.48,2.72-4.82a7.25,7.25,0,0,0-2.72-5.87c-1.22-.84-2.14-1.09-4.32-1.09h-1.17Z" transform="translate(-147.52 -303.17)"/><path class="cls-4" d="M438,452.75c-2,.21-2.76.88-4.14,3.52l-7.08,13.54v5.07c0,3.14.54,3.73,3.68,3.89v1l-1,0h-9.93l-1.34,0v-1c3.27,0,3.85-.62,3.85-3.94v-5L416.35,458c-2.18-4.52-2.72-5-5.36-5.28v-.92h.84l2.3,0c1.51,0,2.68,0,3.48,0,1.38,0,4,0,5.32,0l.75,0v1c-2.47.21-3.1.59-3.1,1.89a4.7,4.7,0,0,0,.46,1.93l5.2,11,5.2-10.81a4.59,4.59,0,0,0,.54-2c0-1.21-.75-1.8-2.51-1.92v-1l.58,0,1.51,0H436l1.3,0H438Z" transform="translate(-147.52 -303.17)"/></svg>